# MagicaVoxel @ Ephtracy

# group
o 

# material
mtllib abd.mtl
usemtl palette

# normals
vn -1 0 0
vn 1 0 0
vn 0 0 1
vn 0 0 -1
vn 0 -1 0
vn 0 1 0

# texcoords
vt 0.0957031 0.5
vt 0.228516 0.5
vt 0.244141 0.5

# verts
v -0.8 1.5 0
v -0.8 1.5 -0.1
v -0.8 1.6 0
v -0.8 1.6 -0.1
v -0.1 1.3 0.2
v -0.1 1.3 -0.3
v -0.1 1.5 0
v -0.1 1.5 -0.1
v -0.1 1.6 0
v -0.1 1.6 -0.1
v -0.1 1.8 0.2
v -0.1 1.8 -0.3
v 0.1 1.5 0.9
v 0.1 1.5 0.7
v 0.1 1.5 0.2
v 0.1 1.5 -0.3
v 0.1 1.5 -0.8
v 0.1 1.5 -1
v 0.1 1.6 0.9
v 0.1 1.6 0.7
v 0.1 1.6 0.2
v 0.1 1.6 -0.3
v 0.1 1.6 -0.8
v 0.1 1.6 -1
v 0.3 1.7 0.1
v 0.3 1.7 -0.2
v 0.3 1.8 0.1
v 0.3 1.8 -0.2
v 5.96046e-08 1.7 0.1
v 5.96046e-08 1.7 -0.2
v 5.96046e-08 1.8 0.1
v 5.96046e-08 1.8 -0.2
v 0.2 1.5 0.9
v 0.2 1.5 0.7
v 0.2 1.5 0.2
v 0.2 1.5 -0.3
v 0.2 1.5 -0.8
v 0.2 1.5 -1
v 0.2 1.6 0.9
v 0.2 1.6 0.7
v 0.2 1.6 0.2
v 0.2 1.6 -0.3
v 0.2 1.6 -0.8
v 0.2 1.6 -1
v 0.4 1.3 0.2
v 0.4 1.3 -0.3
v 0.4 1.5 0
v 0.4 1.5 -0.1
v 0.4 1.6 0
v 0.4 1.6 -0.1
v 0.4 1.8 0.2
v 0.4 1.8 -0.3
v 1.1 1.5 0
v 1.1 1.5 -0.1
v 1.1 1.6 0
v 1.1 1.6 -0.1
v 0.1 1.5 0.9
v 0.1 1.6 0.9
v 0.2 1.5 0.9
v 0.2 1.6 0.9
v -0.1 1.3 0.2
v -0.1 1.8 0.2
v 0.1 1.5 0.2
v 0.1 1.6 0.2
v 0.2 1.5 0.2
v 0.2 1.6 0.2
v 0.4 1.3 0.2
v 0.4 1.8 0.2
v -0.8 1.5 0
v -0.8 1.6 0
v -0.6 1.5 0
v -0.6 1.6 0
v -0.1 1.5 0
v -0.1 1.6 0
v 0.4 1.5 0
v 0.4 1.6 0
v 0.9 1.5 0
v 0.9 1.6 0
v 1.1 1.5 0
v 1.1 1.6 0
v 5.96046e-08 1.7 -0.2
v 5.96046e-08 1.8 -0.2
v 0.3 1.7 -0.2
v 0.3 1.8 -0.2
v 5.96046e-08 1.7 0.1
v 5.96046e-08 1.8 0.1
v 0.3 1.7 0.1
v 0.3 1.8 0.1
v -0.8 1.5 -0.1
v -0.8 1.6 -0.1
v -0.6 1.5 -0.1
v -0.6 1.6 -0.1
v -0.1 1.5 -0.1
v -0.1 1.6 -0.1
v 0.4 1.5 -0.1
v 0.4 1.6 -0.1
v 0.9 1.5 -0.1
v 0.9 1.6 -0.1
v 1.1 1.5 -0.1
v 1.1 1.6 -0.1
v -0.1 1.3 -0.3
v -0.1 1.8 -0.3
v 0.1 1.5 -0.3
v 0.1 1.6 -0.3
v 0.2 1.5 -0.3
v 0.2 1.6 -0.3
v 0.4 1.3 -0.3
v 0.4 1.8 -0.3
v 0.1 1.5 -1
v 0.1 1.6 -1
v 0.2 1.5 -1
v 0.2 1.6 -1
v -0.1 1.3 0.2
v 0.4 1.3 0.2
v -0.1 1.3 -0.3
v 0.4 1.3 -0.3
v 0.1 1.5 0.9
v 0.2 1.5 0.9
v 0.1 1.5 0.7
v 0.2 1.5 0.7
v 0.1 1.5 0.2
v 0.2 1.5 0.2
v -0.8 1.5 0
v -0.6 1.5 0
v -0.1 1.5 0
v 0.4 1.5 0
v 0.9 1.5 0
v 1.1 1.5 0
v -0.8 1.5 -0.1
v -0.6 1.5 -0.1
v -0.1 1.5 -0.1
v 0.4 1.5 -0.1
v 0.9 1.5 -0.1
v 1.1 1.5 -0.1
v 0.1 1.5 -0.3
v 0.2 1.5 -0.3
v 0.1 1.5 -0.8
v 0.2 1.5 -0.8
v 0.1 1.5 -1
v 0.2 1.5 -1
v 0.1 1.6 0.9
v 0.2 1.6 0.9
v 0.1 1.6 0.7
v 0.2 1.6 0.7
v 0.1 1.6 0.2
v 0.2 1.6 0.2
v -0.8 1.6 0
v -0.6 1.6 0
v -0.1 1.6 0
v 0.4 1.6 0
v 0.9 1.6 0
v 1.1 1.6 0
v -0.8 1.6 -0.1
v -0.6 1.6 -0.1
v -0.1 1.6 -0.1
v 0.4 1.6 -0.1
v 0.9 1.6 -0.1
v 1.1 1.6 -0.1
v 0.1 1.6 -0.3
v 0.2 1.6 -0.3
v 0.1 1.6 -0.8
v 0.2 1.6 -0.8
v 0.1 1.6 -1
v 0.2 1.6 -1
v 5.96046e-08 1.7 0.1
v 0.3 1.7 0.1
v 5.96046e-08 1.7 -0.2
v 0.3 1.7 -0.2
v -0.1 1.8 0.2
v 0.4 1.8 0.2
v 5.96046e-08 1.8 0.1
v 0.3 1.8 0.1
v 5.96046e-08 1.8 -0.2
v 0.3 1.8 -0.2
v -0.1 1.8 -0.3
v 0.4 1.8 -0.3

# faces
f 3/3/1 2/3/1 1/3/1
f 4/3/1 2/3/1 3/3/1
f 7/2/1 6/2/1 5/2/1
f 8/2/1 6/2/1 7/2/1
f 9/2/1 7/2/1 5/2/1
f 10/2/1 6/2/1 8/2/1
f 11/2/1 9/2/1 5/2/1
f 11/2/1 10/2/1 9/2/1
f 12/2/1 6/2/1 10/2/1
f 12/2/1 10/2/1 11/2/1
f 19/3/1 14/3/1 13/3/1
f 20/1/1 15/1/1 14/1/1
f 20/3/1 14/3/1 19/3/1
f 21/1/1 15/1/1 20/1/1
f 22/1/1 17/1/1 16/1/1
f 23/3/1 18/3/1 17/3/1
f 23/1/1 17/1/1 22/1/1
f 24/3/1 18/3/1 23/3/1
f 27/2/1 26/2/1 25/2/1
f 28/2/1 26/2/1 27/2/1
f 29/2/2 30/2/2 31/2/2
f 31/2/2 30/2/2 32/2/2
f 33/3/2 34/3/2 39/3/2
f 34/1/2 35/1/2 40/1/2
f 39/3/2 34/3/2 40/3/2
f 40/1/2 35/1/2 41/1/2
f 36/1/2 37/1/2 42/1/2
f 37/3/2 38/3/2 43/3/2
f 42/1/2 37/1/2 43/1/2
f 43/3/2 38/3/2 44/3/2
f 45/2/2 46/2/2 47/2/2
f 47/2/2 46/2/2 48/2/2
f 45/2/2 47/2/2 49/2/2
f 48/2/2 46/2/2 50/2/2
f 45/2/2 49/2/2 51/2/2
f 49/2/2 50/2/2 51/2/2
f 50/2/2 46/2/2 52/2/2
f 51/2/2 50/2/2 52/2/2
f 53/3/2 54/3/2 55/3/2
f 55/3/2 54/3/2 56/3/2
f 59/3/3 58/3/3 57/3/3
f 60/3/3 58/3/3 59/3/3
f 63/2/3 62/2/3 61/2/3
f 64/2/3 62/2/3 63/2/3
f 65/2/3 63/2/3 61/2/3
f 66/2/3 62/2/3 64/2/3
f 67/2/3 65/2/3 61/2/3
f 67/2/3 66/2/3 65/2/3
f 68/2/3 62/2/3 66/2/3
f 68/2/3 66/2/3 67/2/3
f 71/3/3 70/3/3 69/3/3
f 72/3/3 70/3/3 71/3/3
f 73/1/3 72/1/3 71/1/3
f 74/1/3 72/1/3 73/1/3
f 77/1/3 76/1/3 75/1/3
f 78/1/3 76/1/3 77/1/3
f 79/3/3 78/3/3 77/3/3
f 80/3/3 78/3/3 79/3/3
f 83/2/3 82/2/3 81/2/3
f 84/2/3 82/2/3 83/2/3
f 85/2/4 86/2/4 87/2/4
f 87/2/4 86/2/4 88/2/4
f 89/3/4 90/3/4 91/3/4
f 91/3/4 90/3/4 92/3/4
f 91/1/4 92/1/4 93/1/4
f 93/1/4 92/1/4 94/1/4
f 95/1/4 96/1/4 97/1/4
f 97/1/4 96/1/4 98/1/4
f 97/3/4 98/3/4 99/3/4
f 99/3/4 98/3/4 100/3/4
f 101/2/4 102/2/4 103/2/4
f 103/2/4 102/2/4 104/2/4
f 101/2/4 103/2/4 105/2/4
f 104/2/4 102/2/4 106/2/4
f 101/2/4 105/2/4 107/2/4
f 105/2/4 106/2/4 107/2/4
f 106/2/4 102/2/4 108/2/4
f 107/2/4 106/2/4 108/2/4
f 109/3/4 110/3/4 111/3/4
f 111/3/4 110/3/4 112/3/4
f 115/2/5 114/2/5 113/2/5
f 116/2/5 114/2/5 115/2/5
f 119/3/5 118/3/5 117/3/5
f 120/3/5 118/3/5 119/3/5
f 121/1/5 120/1/5 119/1/5
f 122/1/5 120/1/5 121/1/5
f 129/3/5 124/3/5 123/3/5
f 130/1/5 125/1/5 124/1/5
f 130/3/5 124/3/5 129/3/5
f 131/1/5 125/1/5 130/1/5
f 132/1/5 127/1/5 126/1/5
f 133/3/5 128/3/5 127/3/5
f 133/1/5 127/1/5 132/1/5
f 134/3/5 128/3/5 133/3/5
f 137/1/5 136/1/5 135/1/5
f 138/1/5 136/1/5 137/1/5
f 139/3/5 138/3/5 137/3/5
f 140/3/5 138/3/5 139/3/5
f 141/3/6 142/3/6 143/3/6
f 143/3/6 142/3/6 144/3/6
f 143/1/6 144/1/6 145/1/6
f 145/1/6 144/1/6 146/1/6
f 147/3/6 148/3/6 153/3/6
f 148/1/6 149/1/6 154/1/6
f 153/3/6 148/3/6 154/3/6
f 154/1/6 149/1/6 155/1/6
f 150/1/6 151/1/6 156/1/6
f 151/3/6 152/3/6 157/3/6
f 156/1/6 151/1/6 157/1/6
f 157/3/6 152/3/6 158/3/6
f 159/1/6 160/1/6 161/1/6
f 161/1/6 160/1/6 162/1/6
f 161/3/6 162/3/6 163/3/6
f 163/3/6 162/3/6 164/3/6
f 165/2/6 166/2/6 167/2/6
f 167/2/6 166/2/6 168/2/6
f 169/2/6 170/2/6 171/2/6
f 171/2/6 170/2/6 172/2/6
f 169/2/6 171/2/6 173/2/6
f 172/2/6 170/2/6 174/2/6
f 169/2/6 173/2/6 175/2/6
f 173/2/6 174/2/6 175/2/6
f 174/2/6 170/2/6 176/2/6
f 175/2/6 174/2/6 176/2/6
